<?xml version="1.0" encoding="utf-8"?>
<!-- Generator: Adobe Illustrator 25.0.1, SVG Export Plug-In . SVG Version: 6.00 Build 0)  -->
<svg version="1.1" id="Layer_1" xmlns="http://www.w3.org/2000/svg" xmlns:xlink="http://www.w3.org/1999/xlink" x="0px" y="0px"
	 viewBox="0 0 256 256" style="enable-background:new 0 0 256 256;" xml:space="preserve">
<style type="text/css">
	.st0{fill:#4D4D4D;}
	.st1{fill:#FFFFFF;}
</style>
<g>
	<path class="st0" d="M241.87,256c7.8,0,14.13-6.33,14.13-14.13V14.13C256,6.32,249.67,0,241.87,0H14.13C6.32,0,0,6.32,0,14.13
		v227.74C0,249.68,6.32,256,14.13,256H241.87"/>
	<path class="st1" d="M144.83,236.67v-99.14h33.28l4.98-38.63h-38.26V74.23c0-11.19,3.11-18.81,19.15-18.81l20.46-0.01V20.85
		c-3.54-0.47-15.68-1.52-29.81-1.52c-29.5,0-49.69,18-49.69,51.07V98.9H71.57v38.63h33.36v99.14H144.83"/>
</g>
</svg>
