<?xml version="1.0" encoding="utf-8"?>
<!-- Generator: Adobe Illustrator 25.0.1, SVG Export Plug-In . SVG Version: 6.00 Build 0)  -->
<svg version="1.1" id="App_Icon_Kit_A" xmlns="http://www.w3.org/2000/svg" xmlns:xlink="http://www.w3.org/1999/xlink" x="0px"
	 y="0px" viewBox="0 0 1024 1024" style="enable-background:new 0 0 1024 1024;" xml:space="preserve">
<style type="text/css">
	.st0{fill:url(#App_Icon_Placeholder_18_);}
	.st1{display:none;}
	.st2{display:inline;}
	.st3{opacity:0.71;}
	.st4{fill:#FE1211;}
	.st5{fill:#FFFFFF;}
	.st6{clip-path:url(#SVGID_2_);fill:#DCDDDE;}
</style>
<symbol  id="Icon" viewBox="-512 -512 1024 1024">
	
		<linearGradient id="App_Icon_Placeholder_18_" gradientUnits="userSpaceOnUse" x1="-443.9207" y1="-443.9202" x2="443.9207" y2="443.9212">
		<stop  offset="0" style="stop-color:#0087C8"/>
		<stop  offset="0.9984" style="stop-color:#4B3580"/>
	</linearGradient>
	<path id="App_Icon_Placeholder_19_" class="st0" d="M-155.01,512h310c102.81,0,154.19,0,209.53-17.49
		c60.42-21.99,108-69.58,129.98-129.99C512,309.17,512,257.78,512,154.99v-309.98c0-102.8,0-154.19-17.5-209.53
		c-21.98-60.42-69.57-108-129.98-129.98C309.18-512,257.8-512,154.99-512h-310c-102.79,0-154.18,0-209.51,17.5
		c-60.42,21.98-108,69.57-129.98,129.98C-512-309.18-512-257.79-512-154.99v309.98c0,102.79,0,154.18,17.5,209.53
		c21.98,60.42,69.57,108,129.98,129.99C-309.18,512-257.8,512-155.01,512L-155.01,512"/>
	<g id="Cloud_2_18_">
	</g>
</symbol>
<g id="Notifications_and_Activity_-_Preview" class="st1">
	<g id="Loading" class="st2">
		
			<use xlink:href="#Icon"  width="1024" height="1024" x="-512" y="-512" transform="matrix(0.1172 0 0 -0.1172 1919.0704 1137.3715)" style="overflow:visible;"/>
		<g id="App_Icon_Loading_Indicator_Overlay_2_" class="st3">
			<path d="M1918.07,1103.63c-18.23,0-33,14.77-33,33s14.77,33,33,33c18.23,0,33-14.77,33-33c0-1.99-0.19-3.94-0.52-5.83
				l-32.48,5.83V1103.63z"/>
			<path d="M1977.02,1094.65c-2.58-7.08-8.15-12.66-15.23-15.23c-6.48-2.05-12.51-2.05-24.55-2.05h-36.33
				c-12.05,0-18.07,0-24.55,2.05c-7.08,2.58-12.66,8.15-15.23,15.23c-2.05,6.49-2.05,12.51-2.05,24.55v36.33
				c0,12.05,0,18.07,2.05,24.55c2.58,7.08,8.15,12.66,15.23,15.23c6.48,2.05,12.51,2.05,24.55,2.05h36.33
				c12.05,0,18.07,0,24.55-2.05c7.08-2.58,12.66-8.15,15.23-15.23c2.05-6.48,2.05-12.51,2.05-24.55v-36.33
				C1979.07,1107.16,1979.07,1101.14,1977.02,1094.65z M1919.07,1176.37c-21.54,0-39-17.46-39-39s17.46-39,39-39
				c21.54,0,39,17.46,39,39S1940.61,1176.37,1919.07,1176.37z"/>
		</g>
	</g>
	<g id="Two_Digit_Badge" class="st2">
		
			<use xlink:href="#Icon"  width="1024" height="1024" x="-512" y="-512" transform="matrix(0.1172 0 0 -0.1172 1698.5704 1137.001)" style="overflow:visible;"/>
		<g id="Badge_4_">
			<path id="Badge_Background_6_" class="st4" d="M1753.57,1104.26h-16c-13.25,0-24-10.75-24-24v0c0-13.25,10.75-24,24-24h16
				c13.25,0,24,10.75,24,24v0C1777.57,1093.51,1766.83,1104.26,1753.57,1104.26z"/>
			<text transform="matrix(1 0 0 1 1726.9531 1091.5332)" class="st5" style="font-family:'OpenSans'; font-size:32px;">34</text>
		</g>
	</g>
	<g id="One_Digit_Badge" class="st2">
		
			<use xlink:href="#Icon"  width="1024" height="1024" x="-512" y="-512" transform="matrix(0.1172 0 0 -0.1172 1477.5704 1136.8475)" style="overflow:visible;"/>
		<g id="Badge_1_">
			<g id="Badge_Background_1_">
				<path class="st4" d="M1557.57,1081.01c0,12.24-10.01,22.25-22.25,22.25h-2.5c-12.24,0-22.25-10.01-22.25-22.25v-2.5
					c0-12.24,10.01-22.25,22.25-22.25h2.5c12.24,0,22.25,10.01,22.25,22.25V1081.01z"/>
			</g>
			<text transform="matrix(1 0 0 1 1525.1016 1091.5332)" class="st5" style="font-family:'OpenSans'; font-size:32px;">1</text>
		</g>
	</g>
	<text transform="matrix(1 0 0 1 1423.5706 983.071)" class="st2" style="font-family:'OpenSans'; font-size:33px;">Notifications and Activity</text>
</g>
<g id="Settings_Icon_-_Preview_Sizes" class="st1">
	<g id="_x32_9_1_" class="st2">
		
			<use xlink:href="#Icon"  width="1024" height="1024" x="-512" y="-512" transform="matrix(0.0283 0 0 -0.0283 2048.5 732.5)" style="overflow:visible;"/>
		<text transform="matrix(1 0 0 1 2036.7112 791.2036)" style="font-family:'OpenSans'; font-size:20px;">29</text>
	</g>
	<g id="_x35_8_1_" class="st2">
		
			<use xlink:href="#Icon"  width="1024" height="1024" x="-512" y="-512" transform="matrix(0.0566 0 0 -0.0566 1904 732.0294)" style="overflow:visible;"/>
		<text transform="matrix(1 0 0 1 1890.0012 805.7328)" style="font-family:'OpenSans'; font-size:20px;">58</text>
	</g>
	<g id="_x38_7" class="st2">
		
			<use xlink:href="#Icon"  width="1024" height="1024" x="-512" y="-512" transform="matrix(0.085 0 0 -0.085 1708.5 732.4688)" style="overflow:visible;"/>
		<text transform="matrix(1 0 0 1 1696.8496 820.2349)" style="font-family:'OpenSans'; font-size:20px;">87</text>
	</g>
	<text id="Settings_icon_text" transform="matrix(1 0 0 1 1405.8274 707.5002)" class="st2"><tspan x="0" y="0" style="font-family:'OpenSans'; font-size:33px;">Settings</tspan><tspan x="0" y="39.6" style="font-family:'OpenSans'; font-size:33px;">icon </tspan></text>
</g>
<g id="Spotlight_Icon_-_Preview_Sizes" class="st1">
	<g id="_x32_9_3_" class="st2">
		
			<use xlink:href="#Icon"  width="1024" height="1024" x="-512" y="-512" transform="matrix(0.0283 0 0 -0.0283 2308.5129 436.4738)" style="overflow:visible;"/>
		<text transform="matrix(1.0009 0 0 1 2293.6318 495.0719)" style="font-family:'OpenSans'; font-size:19.9639px;">29</text>
	</g>
	<g id="_x34_0_2_" class="st2">
		
			<use xlink:href="#Icon"  width="1024" height="1024" x="-512" y="-512" transform="matrix(0.0391 0 0 -0.0391 2224 436)" style="overflow:visible;"/>
		<text transform="matrix(1 0 0 1 2209 500.7037)" style="font-family:'OpenSans'; font-size:20px;">40</text>
	</g>
	<g id="_x35_8_3_" class="st2">
		
			<use xlink:href="#Icon"  width="1024" height="1024" x="-512" y="-512" transform="matrix(0.0566 0 0 -0.0566 2052 436.1051)" style="overflow:visible;"/>
		<text transform="matrix(1 0 0 1 2035.2112 509.8087)" style="font-family:'OpenSans'; font-size:20px;">58</text>
	</g>
	<g id="_x38_0_2_" class="st2">
		
			<use xlink:href="#Icon"  width="1024" height="1024" x="-512" y="-512" transform="matrix(0.0781 0 0 -0.0781 1904 436)" style="overflow:visible;"/>
		<text transform="matrix(1 0 0 1 1890.0012 519.7036)" style="font-family:'OpenSans'; font-size:20px;">80</text>
	</g>
	<g id="_x31_20_1_" class="st2">
		
			<use xlink:href="#Icon"  width="1024" height="1024" x="-512" y="-512" transform="matrix(0.1172 0 0 -0.1172 1708 436)" style="overflow:visible;"/>
		<text transform="matrix(1 0 0 1 1682.3496 539.7661)" style="font-family:'OpenSans'; font-size:20px;">120</text>
	</g>
	<text id="Spotlight_icon_text_2_" transform="matrix(1 0 0 1 1407.0913 402.0238)" class="st2"><tspan x="0" y="0" style="font-family:'OpenSans'; font-size:33px;">Spotlight </tspan><tspan x="0" y="39.6" style="font-family:'OpenSans'; font-size:33px;">Icon </tspan></text>
</g>
<g id="App_Icon_-_Preview_Sizes" class="st1">
	<g id="_x35_7" class="st2">
		
			<use xlink:href="#Icon"  width="1024" height="1024" x="-512" y="-512" transform="matrix(0.0557 0 0 -0.0557 2320.5 116.5)" style="overflow:visible;"/>
		<text transform="matrix(1 0 0 1 2305.6055 190.2039)" style="font-family:'OpenSans'; font-size:20px;">57</text>
	</g>
	<g id="_x36_0" class="st2">
		
			<use xlink:href="#Icon"  width="1024" height="1024" x="-512" y="-512" transform="matrix(0.0586 0 0 -0.0586 2228 116)" style="overflow:visible;"/>
		<text transform="matrix(1 0 0 1 2213 190.7037)" style="font-family:'OpenSans'; font-size:20px;">60</text>
	</g>
	<g id="_x31_14" class="st2">
		
			<use xlink:href="#Icon"  width="1024" height="1024" x="-512" y="-512" transform="matrix(0.1111 0 0 -0.1111 2072 115.8842)" style="overflow:visible;"/>
		<text transform="matrix(1 0 0 1 2055.2456 217.3813)" style="font-family:'OpenSans'; font-size:19.9594px;">114</text>
	</g>
	<g id="_x31_20" class="st2">
		
			<use xlink:href="#Icon"  width="1024" height="1024" id="XMLID_3_" x="-512" y="-512" transform="matrix(0.1172 0 0 -0.1172 1920 116)" style="overflow:visible;"/>
		<text transform="matrix(1 0 0 1 1900.0012 219.7036)" style="font-family:'OpenSans'; font-size:20px;">120</text>
	</g>
	<g id="_x31_80" class="st2">
		<text transform="matrix(1 0 0 1 1682.3496 249.7661)" style="font-family:'OpenSans'; font-size:20px;">180</text>
	</g>
	
		<text id="App_icon_text" transform="matrix(1 0 0 1 1404.0912 63.5015)" class="st2" style="font-family:'OpenSans'; font-size:33px;">App Icon </text>
	
		<use xlink:href="#Icon"  width="1024" height="1024" x="-512" y="-512" transform="matrix(0.1758 0 0 -0.1758 1708 116)" style="display:inline;overflow:visible;"/>
</g>
<g id="App_Icon_and_Badge_-_Main">
</g>
<g>
	
		<use xlink:href="#Icon"  width="1024" height="1024" id="_x5B_YOUR_ICON_HERE_x5D_" x="-512" y="-512" transform="matrix(1 0 0 -0.666 511.9999 512)" style="overflow:visible;"/>
	<g>
		<path class="st5" d="M948.94,578.34c-3.84-17.65-11.81-29.52-23.69-35.28c-16.15-7.84-34.54-2-41.44,0.74
			c-7.03-25.15-22.71-38.11-34.85-44.6c-10.82-5.78-20.58-7.52-24.39-8.01c-5.51-15.63-14.74-26.03-27.45-30.93
			c-21.4-8.25-46.51,1.35-57.16,6.33c1.73-6.95,4.36-19.79,4.78-35.07c0.83-30.16-7.54-55.25-24.22-72.54
			c-16.89-17.53-41.73-21.99-71.84-12.91c-17.15,5.17-31.24,13.21-37.23,16.92c-6.23-24.12-30.68-50.72-67.81-73.57
			c-35.09-21.6-75.21-35.55-102.2-35.55c-50.7,0-95.93,11.25-134.43,33.44c-30.82,17.76-57.39,42.51-78.98,73.56
			c-32.57,46.84-43.89,94.29-46.1,104.79c-17.21-0.28-31.65,5.16-42.93,16.22c-14.63,14.36-21.15,35.72-24.04,51.12
			c-1.84,9.8-2.49,18.36-2.71,23.83c-4.29-3.78-8.81-5.41-13.51-4.85c-13.71,1.62-23.09,21.84-23.49,22.7l-0.21,0.45l-0.02,0.49
			c-0.42,10.72,3.1,18.56,10.47,23.29c30.54,19.6,119.45-23.1,132.73-29.67c12.66,10.11,42.64,2.45,51.01,0.03
			c14.73,29.56,77.55,10.8,83.5,8.95l188.77-3.13c15.58,25.57,70.82,5.12,82.17,0.58c11.32,17.17,27,28.06,46.62,32.38
			c6.81,1.5,13.81,2.16,20.85,2.16c45.42,0,92.67-27.48,103.49-34.16c5.99,9.55,14.37,15.84,24.94,18.7
			c26.25,7.1,57.73-8.96,64.86-12.89c30.42,21.33,63.15-0.68,63.48-0.91l1.38-0.95L948.94,578.34z"/>
		<g>
			<defs>
				<path id="SVGID_1_" d="M948.94,578.34c-3.84-17.65-11.81-29.52-23.69-35.28c-16.15-7.84-34.54-2-41.44,0.74
					c-7.03-25.15-22.71-38.11-34.85-44.6c-10.82-5.78-20.58-7.52-24.39-8.01c-5.51-15.63-14.74-26.03-27.45-30.93
					c-21.4-8.25-46.51,1.35-57.16,6.33c1.73-6.95,4.36-19.79,4.78-35.07c0.83-30.16-7.54-55.25-24.22-72.54
					c-16.89-17.53-41.73-21.99-71.84-12.91c-17.15,5.17-31.24,13.21-37.23,16.92c-6.23-24.12-30.68-50.72-67.81-73.57
					c-35.09-21.6-75.21-35.55-102.2-35.55c-50.7,0-95.93,11.25-134.43,33.44c-30.82,17.76-57.39,42.51-78.98,73.56
					c-32.57,46.84-43.89,94.29-46.1,104.79c-17.21-0.28-31.65,5.16-42.93,16.22c-14.63,14.36-21.15,35.72-24.04,51.12
					c-1.84,9.8-2.49,18.36-2.71,23.83c-4.29-3.78-8.81-5.41-13.51-4.85c-13.71,1.62-23.09,21.84-23.49,22.7l-0.21,0.45l-0.02,0.49
					c-0.42,10.72,3.1,18.56,10.47,23.29c30.54,19.6,119.45-23.1,132.73-29.67c12.66,10.11,42.64,2.45,51.01,0.03
					c14.73,29.56,77.55,10.8,83.5,8.95l188.77-3.13c15.58,25.57,70.82,5.12,82.17,0.58c11.32,17.17,27,28.06,46.62,32.38
					c6.81,1.5,13.81,2.16,20.85,2.16c45.42,0,92.67-27.48,103.49-34.16c5.99,9.55,14.37,15.84,24.94,18.7
					c26.25,7.1,57.73-8.96,64.86-12.89c30.42,21.33,63.15-0.68,63.48-0.91l1.38-0.95L948.94,578.34z"/>
			</defs>
			<clipPath id="SVGID_2_">
				<use xlink:href="#SVGID_1_"  style="overflow:visible;"/>
			</clipPath>
			<path class="st6" d="M317.22,612.11c2.42-11.65,7.44-19.49,14.93-23.3c10.18-5.18,21.77-1.32,26.12,0.49
				c4.43-16.61,14.31-25.17,21.96-29.45c6.82-3.82,12.97-4.97,15.37-5.29c3.47-10.32,9.29-17.19,17.3-20.42
				c13.48-5.45,29.31,0.89,36.02,4.18c-1.09-4.59-2.75-13.07-3.01-23.16c-0.52-19.92,4.75-36.48,15.26-47.9
				c10.64-11.57,26.3-14.52,45.28-8.53c10.81,3.41,19.69,8.73,23.46,11.18c3.92-15.93,19.33-33.49,42.74-48.59
				c22.12-14.26,47.4-23.48,64.41-23.48c31.95,0,60.46,7.43,84.72,22.08c19.42,11.73,36.17,28.07,49.78,48.58
				c20.53,30.93,27.66,62.27,29.05,69.2c10.84-0.19,19.95,3.41,27.05,10.71c9.22,9.48,13.33,23.59,15.15,33.76
				c1.16,6.47,1.57,12.12,1.71,15.74c2.7-2.49,5.55-3.57,8.51-3.2c8.64,1.07,14.55,14.42,14.8,14.99l0.13,0.3l0.01,0.33
				c0.26,7.08-1.96,12.25-6.6,15.38c-19.25,12.94-75.28-15.25-83.65-19.6c-7.98,6.67-26.87,1.62-32.15,0.02
				c-9.28,19.52-48.87,7.13-52.62,5.91l-118.97-2.07c-9.82,16.89-44.63,3.38-51.78,0.38c-7.14,11.34-17.01,18.53-29.38,21.39
				c-4.29,0.99-8.7,1.43-13.14,1.43c-28.62,0-58.4-18.15-65.22-22.56c-3.78,6.31-9.06,10.46-15.72,12.35
				c-16.54,4.69-36.38-5.92-40.87-8.51c-19.17,14.08-39.8-0.45-40-0.6l-0.87-0.63L317.22,612.11z"/>
		</g>
		<path class="st5" d="M325.22,623.12c2.35-11.65,7.24-19.48,14.52-23.28c9.9-5.17,21.18-1.32,25.41,0.49
			c4.31-16.59,13.92-25.15,21.36-29.43c6.63-3.81,12.61-4.96,14.95-5.29c3.38-10.31,9.03-17.17,16.83-20.41
			c13.12-5.44,28.51,0.89,35.04,4.18c-1.06-4.58-2.67-13.06-2.93-23.14c-0.51-19.9,4.63-36.46,14.85-47.86
			c10.35-11.57,25.59-14.51,44.04-8.52c10.51,3.41,19.15,8.72,22.82,11.17c3.82-15.91,18.81-33.47,41.57-48.55
			c21.51-14.25,46.11-23.46,62.65-23.46c31.08,0,58.81,7.42,82.41,22.06c18.89,11.72,35.18,28.05,48.42,48.54
			c19.97,30.91,26.91,62.22,28.26,69.15c10.55-0.19,19.41,3.4,26.32,10.7c8.97,9.47,12.97,23.57,14.74,33.73
			c1.13,6.46,1.53,12.11,1.66,15.73c2.63-2.49,5.4-3.57,8.28-3.2c8.41,1.07,14.16,14.41,14.4,14.98l0.13,0.3l0.01,0.32
			c0.26,7.08-1.9,12.25-6.42,15.37c-18.72,12.93-73.23-15.24-81.37-19.58c-7.76,6.67-26.14,1.61-31.27,0.02
			c-9.03,19.5-47.54,7.13-51.19,5.9L575,620.96c-9.55,16.88-43.42,3.38-50.37,0.38c-6.94,11.33-16.55,18.52-28.58,21.37
			c-4.18,0.99-8.46,1.43-12.78,1.43c-27.85,0-56.81-18.13-63.44-22.54c-3.67,6.3-8.81,10.45-15.29,12.34
			c-16.09,4.69-35.39-5.91-39.76-8.51c-18.65,14.07-38.71-0.45-38.92-0.6L325,624.2L325.22,623.12z"/>
	</g>
</g>
<g>
	<g>
		<path class="st5" d="M401.28,782.71c0-15.26-9.16-22.07-29.59-30.06l-8.92-3.52c-23.95-9.39-40.39-23.01-40.39-46.96
			c0-27,22.78-43.44,52.6-43.44c15.73,0,28.18,4.93,38.28,12.45l-1.41,30.53h-14.09l-6.57-35.46l15.03,7.75v11.74
			c-11.51-11.27-20.19-15.26-32.64-15.26c-18.32,0-32.17,9.16-32.17,26.77c0,14.79,9.63,23.48,26.77,30.06l9.16,3.52
			c31,11.98,42.97,25.59,42.97,47.67c0,27.71-23.25,44.62-55.42,44.62c-17.61,0-34.75-5.64-45.55-12.45l1.41-32.88h14.09l6.11,36.16
			l-15.26-6.58v-11.27c14.56,10.57,22.54,15.26,38.51,15.26C386.49,811.35,401.28,801.02,401.28,782.71z"/>
		<path class="st5" d="M563.07,796.33v12.92l-14.56,3.29l5.87-34.75h14.32l-0.94,34.05c-14.79,7.98-31,11.27-47.43,11.27
			c-47.43,0-79.37-34.28-79.37-82.19c0-46.96,33.34-82.19,79.13-82.19c12.68,0,29.35,2.11,45.32,11.27l0.94,34.05h-14.32
			l-5.87-34.75l14.56,3.29v14.32c-13.38-12.45-26.53-16.44-37.81-16.44c-31.7,0-57.3,24.66-57.3,70.44
			c0,45.79,23.01,70.45,55.65,70.45C534.66,811.35,549.69,807.36,563.07,796.33z"/>
		<path class="st5" d="M588.67,671.64v-9.39h32.87v12.92h-2.35L588.67,671.64z M623.89,806.66l30.53,3.52v9.39h-65.75v-9.39
			l30.53-3.52H623.89z M610.98,735.04c0-24.19,0-48.61-0.7-72.79h22.54c-0.7,23.72-0.7,48.14-0.7,72.79v8.92c0,27,0,51.42,0.7,75.61
			h-22.54c0.7-23.72,0.7-48.14,0.7-72.79V735.04z M686.59,662.25l10.57,11.74h-75.61v-11.74h83.83l1.64,41.8h-13.15L686.59,662.25z
			 M676.49,744.67h-54.95v-10.8h54.95V744.67z M668.98,736.21l3.52-24.89h10.57v58H672.5l-3.52-26.06V736.21z"/>
	</g>
</g>
</svg>
