<?xml version="1.0" encoding="utf-8"?>
<!-- Generator: Adobe Illustrator 25.0.1, SVG Export Plug-In . SVG Version: 6.00 Build 0)  -->
<svg version="1.1" id="Layer_1" xmlns="http://www.w3.org/2000/svg" xmlns:xlink="http://www.w3.org/1999/xlink" x="0px" y="0px"
	 viewBox="0 0 256 209" style="enable-background:new 0 0 256 209;" xml:space="preserve">
<style type="text/css">
	.st0{fill:#4D4D4D;}
</style>
<g>
	<path class="st0" d="M256,25.45c-9.42,4.18-19.54,7-30.17,8.27c10.84-6.5,19.17-16.79,23.09-29.06
		c-10.15,6.02-21.39,10.39-33.35,12.75C205.99,7.2,192.35,0.82,177.24,0.82c-29.01,0-52.52,23.52-52.52,52.52
		c0,4.12,0.47,8.13,1.36,11.97c-43.65-2.19-82.35-23.1-108.26-54.88c-4.52,7.76-7.11,16.78-7.11,26.4c0,18.22,9.27,34.3,23.37,43.72
		c-8.61-0.27-16.71-2.64-23.79-6.57c0,0.22,0,0.44,0,0.66c0,25.45,18.1,46.68,42.13,51.5c-4.41,1.2-9.05,1.84-13.84,1.84
		c-3.38,0-6.67-0.33-9.88-0.94c6.68,20.87,26.08,36.05,49.06,36.48C59.78,177.61,37.14,186,12.53,186c-4.24,0-8.42-0.25-12.53-0.73
		c23.24,14.9,50.85,23.6,80.51,23.6c96.61,0,149.43-80.03,149.43-149.43c0-2.28-0.05-4.54-0.15-6.79
		C240.05,45.23,248.96,35.98,256,25.45"/>
</g>
</svg>
